<svg width="394" height="394" viewBox="0 0 394 394" fill="none" xmlns="http://www.w3.org/2000/svg">
<g opacity="0.5" filter="url(#filter0_f_331_8519)">
<path d="M186.5 50H207.5V102.5H186.5V50ZM256.724 122.45L293.537 85.637L308.384 100.484L271.571 137.297L256.724 122.45ZM291.5 186.5H344V207.5H291.5V186.5ZM256.724 271.55L271.571 256.714L308.384 293.527L293.537 308.374L256.724 271.55ZM186.5 291.5H207.5V344H186.5V291.5ZM85.637 293.516L122.45 256.703L137.297 271.55L100.494 308.363L85.637 293.516ZM50 186.5H102.5V207.5H50V186.5ZM85.6475 100.484L100.494 85.637L137.307 122.45L122.45 137.297L85.6475 100.484ZM197 134C184.54 134 172.359 137.695 161.999 144.617C151.639 151.54 143.564 161.379 138.796 172.891C134.027 184.403 132.78 197.07 135.211 209.291C137.641 221.511 143.642 232.737 152.452 241.548C161.263 250.358 172.489 256.359 184.709 258.789C196.93 261.22 209.597 259.973 221.109 255.204C232.621 250.436 242.46 242.361 249.383 232.001C256.305 221.641 260 209.46 260 197C260 180.291 253.363 164.267 241.548 152.452C229.733 140.637 213.709 134 197 134Z" fill="#017848"/>
</g>
<defs>
<filter id="filter0_f_331_8519" x="0" y="0" width="394" height="394" filterUnits="userSpaceOnUse" color-interpolation-filters="sRGB">
<feFlood flood-opacity="0" result="BackgroundImageFix"/>
<feBlend mode="normal" in="SourceGraphic" in2="BackgroundImageFix" result="shape"/>
<feGaussianBlur stdDeviation="25" result="effect1_foregroundBlur_331_8519"/>
</filter>
</defs>
</svg>
